<svg xmlns="http://www.w3.org/2000/svg" width="37.283" height="37.101" viewBox="0 0 37.283 37.101">
  <g id="Group_47550" data-name="Group 47550" transform="translate(0.05 0.066)">
    <g id="Group_40809" data-name="Group 40809" transform="translate(0 0)">
      <path id="Path_2803" data-name="Path 2803" d="M17167.617-12182.082s.758,25.262-25.355,25.262" transform="translate(-17142.262 12182.277)" fill="none" stroke="#146aff" stroke-width="4.5"/>
      <path id="Path_2804" data-name="Path 2804" d="M17160.518-12183.809s1.084,16.525-15.457,18.213a27.7,27.7,0,0,1-2.793.136" transform="translate(-17142.268 12183.969)" fill="none" stroke="#146aff" stroke-width="4.5"/>
      <path id="Path_2805" data-name="Path 2805" d="M17154.027-12172.083s.352,11.952-11.76,11.952" transform="translate(-17142.266 12172.083)" fill="none" stroke="#146aff" stroke-width="4.5"/>
      <path id="Path_2821" data-name="Path 2821" d="M0,11.264C.1,9.632.056,6.948.031,5.836c0-.224-.01-.389-.01-.389L.015,0" transform="translate(16.069 2.272) rotate(-90)" fill="none" stroke="#146aff" stroke-width="4.5"/>
      <path id="Path_2819" data-name="Path 2819" d="M.007,8.07,0,0" transform="translate(2.2 10.629)" fill="none" stroke="#146aff" stroke-width="4.5"/>
    </g>
    <path id="Path_12177" data-name="Path 12177" d="M17112.314-12175.937s.566-26.146,26.686-26.146" transform="translate(-17103.4 12212.138)" fill="none" stroke="#fff" stroke-width="4.5"/>
    <g id="Group_40810" data-name="Group 40810" transform="translate(11.764 10.585)">
      <path id="Path_2807" data-name="Path 2807" d="M17142.27-12154.471s-.57-18.533,18.879-18.533" transform="translate(-17135.789 12180.851)" fill="none" stroke="#191933" stroke-width="4.5"/>
      <path id="Path_2818" data-name="Path 2818" d="M.007,8.809,0,0" transform="translate(23.212 0)" fill="none" stroke="#191933" stroke-width="4.5"/>
      <path id="Path_2820" data-name="Path 2820" d="M.007,10.671V9.5L0,0" transform="translate(4.984 24.137) rotate(-90)" fill="none" stroke="#191933" stroke-width="4.5"/>
      <path id="Path_2808" data-name="Path 2808" d="M17142.273-12160.616h0c0-.023-.34-11.467,11.758-11.467" transform="translate(-17128.678 12186.957)" fill="none" stroke="#191933" stroke-width="4.5"/>
      <path id="Path_2806" data-name="Path 2806" d="M17142.27-12147.262s-.758-24.821,25.355-24.821" transform="translate(-17142.268 12173.634)" fill="none" stroke="#191933" stroke-width="4.5"/>
    </g>
  </g>
</svg>
