<svg id="Group_41171" data-name="Group 41171" xmlns="http://www.w3.org/2000/svg" width="28.129" height="28.129" viewBox="0 0 28.129 28.129">
  <rect id="Rectangle_3055" data-name="Rectangle 3055" width="28.129" height="28.129" rx="3" fill="#146aff"/>
  <g id="Group_41166" data-name="Group 41166" transform="translate(2.446 2.446)">
    <path id="Path_38560" data-name="Path 38560" d="M1593.869,60.052a3.828,3.828,0,1,1-3.828,3.828,3.828,3.828,0,0,1,3.828-3.828m0-2.116a5.945,5.945,0,1,0,5.944,5.945,5.951,5.951,0,0,0-5.944-5.945" transform="translate(-1582.37 -52.382)" fill="#fff"/>
    <path id="Path_38561" data-name="Path 38561" d="M1546.554,2.116a4.314,4.314,0,0,1,4.314,4.313V16.567a4.314,4.314,0,0,1-4.314,4.314h-10.137a4.314,4.314,0,0,1-4.313-4.314V6.43a4.314,4.314,0,0,1,4.313-4.313Zm0-2.116h-10.137a6.437,6.437,0,0,0-6.43,6.43V16.567a6.437,6.437,0,0,0,6.43,6.43h10.137a6.438,6.438,0,0,0,6.43-6.43V6.43a6.438,6.438,0,0,0-6.43-6.43" transform="translate(-1529.987)" fill="#fff"/>
    <path id="Path_38562" data-name="Path 38562" d="M1703.366,41.479a1.4,1.4,0,1,1-1.4-1.4,1.4,1.4,0,0,1,1.4,1.4" transform="translate(-1684.211 -36.235)" fill="#fff"/>
  </g>
</svg>
