<svg id="Group_41167" data-name="Group 41167" xmlns="http://www.w3.org/2000/svg" width="28.129" height="28.129" viewBox="0 0 28.129 28.129">
  <rect id="Rectangle_3052" data-name="Rectangle 3052" width="28.129" height="28.129" rx="3" fill="#146aff"/>
  <g id="Group_41164" data-name="Group 41164" transform="translate(3.669 3.898)">
    <path id="Path_38567" data-name="Path 38567" d="M310.79,19.622a2.4,2.4,0,1,1-2.4-2.4,2.4,2.4,0,0,1,2.4,2.4" transform="translate(-305.998 -17.226)" fill="#fff"/>
    <rect id="Rectangle_3006" data-name="Rectangle 3006" width="4.031" height="13.21" transform="translate(0.384 6.483)" fill="#fff"/>
    <path id="Path_38568" data-name="Path 38568" d="M382.134,83.362V81.531h-4v13.21h4v-5.22c0-2.261.3-3.343.848-3.934l.032-.035a2.206,2.206,0,0,1,3.164-.152,2.985,2.985,0,0,1,.64,2.035v7.307h4.266v-6.96c0-5.01-1.868-6.382-4.286-6.568l-.211-.016a4.457,4.457,0,0,0-4.454,2.165" transform="translate(-371.222 -75.048)" fill="#fff"/>
  </g>
</svg>
