<svg id="Group_41169" data-name="Group 41169" xmlns="http://www.w3.org/2000/svg" width="28.129" height="28.129" viewBox="0 0 28.129 28.129">
  <rect id="Rectangle_3053" data-name="Rectangle 3053" width="28.129" height="28.129" rx="3" fill="#146aff"/>
  <path id="Path_38563" data-name="Path 38563" d="M936.495,33.015a3.448,3.448,0,0,0,1.823-2.369,8.205,8.205,0,0,1-2.74,1.021c-.014,0-.031,0-.046,0a4.309,4.309,0,0,0-7.345,3.853l-.049.026c-4.711.2-8.755-4.448-8.755-4.448a4.506,4.506,0,0,0,1.234,5.823,5.547,5.547,0,0,1-1.84-.505c0,.95.187,3.215,3.336,4.246a7.143,7.143,0,0,1-1.84.062,3.957,3.957,0,0,0,3.922,2.991,8.47,8.47,0,0,1-6.2,1.79,12.221,12.221,0,0,0,11.884.8l.891-.513a11.85,11.85,0,0,0,5.926-9.712l.072-1.53a6.148,6.148,0,0,0,2.12-2.1,10.027,10.027,0,0,1-2.389.559" transform="translate(-914.323 -25.43)" fill="#fff"/>
</svg>
