<svg xmlns="http://www.w3.org/2000/svg" xmlns:xlink="http://www.w3.org/1999/xlink" version="1.1" width="1000" height="1000" viewBox="0 0 1000 1000" xml:space="preserve">
<desc>Created with Fabric.js 3.5.0</desc>
<defs>
</defs>
<rect x="0" y="0" width="100%" height="100%" fill="#ffffff"/>
<g transform="matrix(-35.9481 0 0 35.9481 500.0003 500.0001)" id="336791">
<path style="stroke: none; stroke-width: 1; stroke-dasharray: none; stroke-linecap: butt; stroke-dashoffset: 0; stroke-linejoin: miter; stroke-miterlimit: 4; is-custom-font: none; font-file-url: none; fill: rgb(20,106,255); fill-rule: nonzero; opacity: 1;" vector-effect="non-scaling-stroke" transform=" translate(-14.644, -13.587)" d="M 15.909 18.645 H 3.264 a 1.264 1.264 0 0 0 0 2.529 H 15.909 a 1.264 1.264 0 0 0 0 -2.529 Z M 3.264 8.529 h 22.76 a 1.264 1.264 0 0 0 0 -2.529 H 3.264 a 1.264 1.264 0 0 0 0 2.529 Z m 22.76 3.793 H 3.264 a 1.264 1.264 0 0 0 0 2.529 h 22.76 a 1.264 1.264 0 0 0 0 -2.529 Z" stroke-linecap="round"/>
</g>
</svg>