<svg id="Group_41170" data-name="Group 41170" xmlns="http://www.w3.org/2000/svg" width="28.129" height="28.129" viewBox="0 0 28.129 28.129">
  <rect id="Rectangle_3054" data-name="Rectangle 3054" width="28.129" height="28.129" rx="3" fill="#146aff"/>
  <g id="Group_41165" data-name="Group 41165" transform="translate(3.669 3.73)">
    <path id="Path_38565" data-name="Path 38565" d="M1234.14,3.8a8.378,8.378,0,1,1-4.543,15.416.167.167,0,0,0-.135-.022l-1.333.357-1.661.445.445-1.661.343-1.28a.168.168,0,0,0-.024-.139A8.376,8.376,0,0,1,1234.14,3.8m0-1.753a10.13,10.13,0,0,0-8.791,15.166.166.166,0,0,1,.017.127l-.145.542-.445,1.661-.786,2.933,2.934-.786,1.661-.445.621-.167a.167.167,0,0,1,.123.015,10.131,10.131,0,1,0,4.812-19.046" transform="translate(-1223.99 -2.046)" fill="#fff"/>
    <path id="Path_38566" data-name="Path 38566" d="M1283.453,64.924a2.171,2.171,0,0,1,.94-.032.469.469,0,0,1,.346.267c.382.813.509,1.136.783,1.755a1.165,1.165,0,0,1-.275,1.32c-.168.156-.324.3-.394.373-.2.211,1.062,2.726,3.668,3.431a.326.326,0,0,0,.335-.109c.263-.32.517-.654.779-.977a.476.476,0,0,1,.542-.14c.864.338,1.112.529,1.978.867a.447.447,0,0,1,.336.456,2.1,2.1,0,0,1-1.421,2.179,3.224,3.224,0,0,1-.546.09c-3.386.212-7.843-3.353-8.3-6.732h0a2.707,2.707,0,0,1,1.232-2.748" transform="translate(-1277.167 -59.417)" fill="#fff"/>
  </g>
</svg>
